# xmcd
#
# Track frame offsets:
#	150
#	16125
#	32400
#	44925
#	60900
#	77550
#	88425
#	105375
#	117075
#	133425
#	149400
#	160200
#	171375
#	182325
#	194625
#	206250
#	220725
#
# Disc length: 3102 seconds
#
# Revision: 0
# Processed by: cddbd v1.4PL0 Copyright (c) Steve Scherf et al.
# Submitted via: dBpowerAMP V4.0
#
DISCID=ef0c1c11
DTITLE=Egil Skjelnes - Steelig Musikk
DYEAR=1900
DGENRE=
TTITLE0=Vakre Hardanger
TTITLE1=Half Hearted Love
TTITLE2=Why Am I Here
TTITLE3=I Want To Be A Cowboy's Sweetheart
TTITLE4=So Sad
TTITLE5=Endless Highway
TTITLE6=Let It Be Me
TTITLE7=Ain't No Fun To Be Alone In San Antone
TTITLE8=Wonderful Tonight
TTITLE9=I Fall To Pieces
TTITLE10=Stumbling
TTITLE11=Play Your Steel Guitar For Me
TTITLE12=Lorina
TTITLE13=Uptown Downtown
TTITLE14=And I Love Her
TTITLE15=Cryin In The Rain
TTITLE16=No Second Chance
EXTD=Norwegian Steelguitarist. Coming From Bergen
EXTT0=
EXTT1=
EXTT2=
EXTT3=
EXTT4=
EXTT5=
EXTT6=
EXTT7=
EXTT8=
EXTT9=
EXTT10=
EXTT11=
EXTT12=
EXTT13=
EXTT14=
EXTT15=
EXTT16=
PLAYORDER=
